<svg width="35" height="41" viewBox="0 0 35 41" fill="none" xmlns="http://www.w3.org/2000/svg">
<path fill-rule="evenodd" clip-rule="evenodd" d="M27.6499 15.5398C28.3715 14.8104 29.5415 14.8104 30.2631 15.5398L33.9588 19.2751C34.6804 20.0045 34.6804 21.1871 33.9588 21.9164L30.2631 25.6518C29.5415 26.3812 28.3715 26.3812 27.6499 25.6518C26.9283 24.9224 26.9283 23.7399 27.6499 23.0105L30.039 20.5958L27.6499 18.1811C26.9283 17.4517 26.9283 16.2691 27.6499 15.5398Z" fill="#38342E"/>
<path fill-rule="evenodd" clip-rule="evenodd" d="M15.6522 20.5958C15.6522 19.5643 16.4795 18.7281 17.5 18.7281H30.8043C31.8249 18.7281 32.6522 19.5643 32.6522 20.5958C32.6522 21.6273 31.8249 22.4635 30.8043 22.4635H17.5C16.4795 22.4635 15.6522 21.6273 15.6522 20.5958Z" fill="#38342E"/>
<path fill-rule="evenodd" clip-rule="evenodd" d="M10.9754 6.42773C7.36164 8.79587 4.19565 12.5554 4.19565 20.9693C4.19565 29.3907 7.26591 32.6137 10.7289 34.5583C14.3807 36.6088 18.8998 36.6552 22.1003 36.2958C23.1146 36.1818 24.0282 36.9206 24.1409 37.9458C24.2536 38.971 23.5227 39.8944 22.5084 40.0083C19.0567 40.3959 13.5976 40.4422 8.93414 37.8236C4.08191 35.0989 0.5 30.4777 0.5 20.9693C0.5 11.4536 4.17097 6.43501 8.96486 3.29348C13.6327 0.234532 19.1159 -0.17273 22.6255 0.453269C23.6305 0.632528 24.3014 1.60131 24.1241 2.61711C23.9467 3.6329 22.9882 4.31105 21.9832 4.13179C19.2102 3.63718 14.7151 3.977 10.9754 6.42773Z" fill="#38342E"/>
</svg>
