<svg width="530" height="325" viewBox="0 0 530 325" fill="none" xmlns="http://www.w3.org/2000/svg">
<path d="M375.692 26.7464C257.068 55.3383 204.5 -17.5 119.488 4.39208C34.4763 26.2842 -11.2923 109.109 2.55303 199.081C17.1092 293.673 148.601 340.115 233.997 319.198C352.507 290.169 319.216 222.604 405.915 237.619C492.613 252.633 546.21 173.194 525.003 105.859C503 36 445.5 9.92041 375.692 26.7464Z" fill="#69E2B2"/>
<path d="M160.227 164.801C161.127 166.701 161.577 168.551 161.577 170.351C161.577 173.651 160.227 176.451 157.527 178.751C154.927 181.051 151.927 182.201 148.527 182.201C146.227 182.201 144.127 181.601 142.227 180.401C140.327 179.201 138.827 177.401 137.727 175.001L130.977 159.851H82.377L75.477 175.001C74.377 177.401 72.827 179.201 70.827 180.401C68.927 181.601 66.827 182.201 64.527 182.201C61.127 182.201 58.027 181.051 55.227 178.751C52.527 176.451 51.177 173.651 51.177 170.351C51.177 168.551 51.627 166.701 52.527 164.801L92.127 83.5006C93.427 80.8006 95.327 78.7506 97.827 77.3506C100.427 75.8506 103.277 75.1006 106.377 75.1006C109.377 75.1006 112.177 75.8506 114.777 77.3506C117.377 78.7506 119.327 80.8006 120.627 83.5006L160.227 164.801ZM121.677 139.151L106.677 105.701L91.677 139.151H121.677ZM183.738 182.651C179.538 182.651 176.188 181.451 173.688 179.051C171.288 176.551 170.088 173.201 170.088 169.001V88.7506C170.088 84.6506 171.188 81.5006 173.388 79.3006C175.588 77.1006 178.738 76.0006 182.838 76.0006H221.238C232.938 76.0006 242.038 79.0006 248.538 85.0006C255.038 90.9006 258.288 99.1506 258.288 109.751C258.288 120.251 254.988 128.501 248.388 134.501C241.888 140.501 232.838 143.501 221.238 143.501H197.688V169.001C197.688 173.201 196.438 176.551 193.938 179.051C191.438 181.451 188.038 182.651 183.738 182.651ZM217.488 122.801C222.588 122.801 226.338 121.751 228.738 119.651C231.238 117.551 232.488 114.301 232.488 109.901C232.488 101.201 227.488 96.8506 217.488 96.8506H197.688V122.801H217.488ZM357.552 164.201C359.352 166.901 360.252 169.451 360.252 171.851C360.252 175.051 358.902 177.751 356.202 179.951C353.602 182.051 350.552 183.101 347.052 183.101C344.652 183.101 342.402 182.551 340.302 181.451C338.202 180.351 336.402 178.701 334.902 176.501L315.402 148.001C314.002 146.001 312.502 144.551 310.902 143.651C309.402 142.651 307.602 142.151 305.502 142.151H295.752V169.001C295.752 173.201 294.552 176.551 292.152 179.051C289.752 181.451 286.452 182.651 282.252 182.651C278.052 182.651 274.702 181.451 272.202 179.051C269.802 176.551 268.602 173.201 268.602 169.001V88.7506C268.602 84.6506 269.702 81.5006 271.902 79.3006C274.102 77.1006 277.252 76.0006 281.352 76.0006H319.002C331.802 76.0006 341.402 78.8006 347.802 84.4006C354.302 89.9006 357.552 97.9006 357.552 108.401C357.552 116.401 355.352 123.201 350.952 128.801C346.552 134.301 340.352 138.001 332.352 139.901C335.652 140.401 338.502 141.501 340.902 143.201C343.402 144.901 345.852 147.451 348.252 150.851L357.552 164.201ZM314.652 121.451C320.752 121.451 325.102 120.501 327.702 118.601C330.402 116.701 331.752 113.601 331.752 109.301C331.752 104.901 330.402 101.751 327.702 99.8506C325.102 97.8506 320.752 96.8506 314.652 96.8506H295.452V121.451H314.652ZM471.295 164.801C472.195 166.701 472.645 168.551 472.645 170.351C472.645 173.651 471.295 176.451 468.595 178.751C465.995 181.051 462.995 182.201 459.595 182.201C457.295 182.201 455.195 181.601 453.295 180.401C451.395 179.201 449.895 177.401 448.795 175.001L442.045 159.851H393.445L386.545 175.001C385.445 177.401 383.895 179.201 381.895 180.401C379.995 181.601 377.895 182.201 375.595 182.201C372.195 182.201 369.095 181.051 366.295 178.751C363.595 176.451 362.245 173.651 362.245 170.351C362.245 168.551 362.695 166.701 363.595 164.801L403.195 83.5006C404.495 80.8006 406.395 78.7506 408.895 77.3506C411.495 75.8506 414.345 75.1006 417.445 75.1006C420.445 75.1006 423.245 75.8506 425.845 77.3506C428.445 78.7506 430.395 80.8006 431.695 83.5006L471.295 164.801ZM432.745 139.151L417.745 105.701L402.745 139.151H432.745Z" fill="#173D63"/>
<path d="M70.549 205.191C71.389 205.191 72.061 205.419 72.565 205.875C73.093 206.331 73.357 206.931 73.357 207.675V228.411C73.357 229.179 73.105 229.803 72.601 230.283C72.121 230.739 71.473 230.967 70.657 230.967C69.841 230.967 69.181 230.739 68.677 230.283C68.197 229.803 67.957 229.179 67.957 228.411V228.123C67.429 229.035 66.673 229.755 65.689 230.283C64.729 230.787 63.637 231.039 62.413 231.039C60.901 231.039 59.545 230.655 58.345 229.887C57.169 229.095 56.245 228.003 55.573 226.611C54.925 225.195 54.601 223.575 54.601 221.751C54.601 219.927 54.925 218.331 55.573 216.963C56.245 215.571 57.169 214.503 58.345 213.759C59.521 213.015 60.877 212.643 62.413 212.643C63.613 212.643 64.693 212.895 65.653 213.399C66.637 213.903 67.393 214.611 67.921 215.523V207.567C67.921 206.847 68.161 206.271 68.641 205.839C69.121 205.407 69.757 205.191 70.549 205.191ZM63.997 226.899C65.269 226.899 66.241 226.467 66.913 225.603C67.609 224.715 67.957 223.455 67.957 221.823C67.957 220.191 67.609 218.943 66.913 218.079C66.241 217.215 65.269 216.783 63.997 216.783C62.725 216.783 61.741 217.215 61.045 218.079C60.349 218.919 60.001 220.143 60.001 221.751C60.001 223.383 60.349 224.655 61.045 225.567C61.741 226.455 62.725 226.899 63.997 226.899ZM78.8391 230.967C78.0471 230.967 77.3871 230.751 76.8591 230.319C76.3551 229.887 76.1031 229.251 76.1031 228.411V215.271C76.1031 214.431 76.3671 213.795 76.8951 213.363C77.4231 212.931 78.0711 212.715 78.8391 212.715C79.6071 212.715 80.2431 212.931 80.7471 213.363C81.2751 213.795 81.5391 214.431 81.5391 215.271V228.411C81.5391 229.251 81.2751 229.887 80.7471 230.319C80.2431 230.751 79.6071 230.967 78.8391 230.967ZM78.8391 209.835C77.8791 209.835 77.1231 209.595 76.5711 209.115C76.0191 208.611 75.7431 207.939 75.7431 207.099C75.7431 206.259 76.0191 205.599 76.5711 205.119C77.1231 204.639 77.8791 204.399 78.8391 204.399C79.7751 204.399 80.5191 204.651 81.0711 205.155C81.6471 205.635 81.9351 206.283 81.9351 207.099C81.9351 207.939 81.6591 208.611 81.1071 209.115C80.5551 209.595 79.7991 209.835 78.8391 209.835ZM99.5967 212.715C100.413 212.715 101.061 212.955 101.541 213.435C102.045 213.891 102.297 214.503 102.297 215.271V228.843C102.297 231.699 101.469 233.859 99.8127 235.323C98.1567 236.787 95.7327 237.519 92.5407 237.519C89.8527 237.519 87.6447 237.039 85.9167 236.079C85.4847 235.839 85.1487 235.539 84.9087 235.179C84.6687 234.843 84.5487 234.459 84.5487 234.027C84.5487 233.427 84.6927 232.935 84.9807 232.551C85.2687 232.167 85.6527 231.975 86.1327 231.975C86.3967 231.975 86.7087 232.023 87.0687 232.119C87.4287 232.239 87.8007 232.371 88.1847 232.515C88.9527 232.803 89.6607 233.031 90.3087 233.199C90.9567 233.367 91.6527 233.451 92.3967 233.451C93.9327 233.451 95.0727 233.103 95.8167 232.407C96.5607 231.711 96.9327 230.655 96.9327 229.239V227.295C96.4287 228.207 95.6727 228.927 94.6647 229.455C93.6567 229.983 92.5287 230.247 91.2807 230.247C89.7447 230.247 88.3767 229.887 87.1767 229.167C86.0007 228.447 85.0767 227.427 84.4047 226.107C83.7327 224.763 83.3967 223.215 83.3967 221.463C83.3967 219.711 83.7327 218.175 84.4047 216.855C85.0767 215.511 86.0007 214.479 87.1767 213.759C88.3767 213.015 89.7447 212.643 91.2807 212.643C92.5047 212.643 93.6087 212.907 94.5927 213.435C95.6007 213.939 96.3687 214.647 96.8967 215.559V215.199C96.8967 214.431 97.1367 213.831 97.6167 213.399C98.1207 212.943 98.7807 212.715 99.5967 212.715ZM92.8647 226.107C94.1367 226.107 95.1207 225.699 95.8167 224.883C96.5367 224.067 96.8967 222.927 96.8967 221.463C96.8967 219.999 96.5367 218.859 95.8167 218.043C95.1207 217.203 94.1367 216.783 92.8647 216.783C91.5927 216.783 90.5967 217.203 89.8767 218.043C89.1567 218.859 88.7967 219.999 88.7967 221.463C88.7967 222.927 89.1567 224.067 89.8767 224.883C90.5967 225.699 91.5927 226.107 92.8647 226.107ZM107.776 230.967C106.984 230.967 106.324 230.751 105.796 230.319C105.292 229.887 105.04 229.251 105.04 228.411V215.271C105.04 214.431 105.304 213.795 105.832 213.363C106.36 212.931 107.008 212.715 107.776 212.715C108.544 212.715 109.18 212.931 109.684 213.363C110.212 213.795 110.476 214.431 110.476 215.271V228.411C110.476 229.251 110.212 229.887 109.684 230.319C109.18 230.751 108.544 230.967 107.776 230.967ZM107.776 209.835C106.816 209.835 106.06 209.595 105.508 209.115C104.955 208.611 104.679 207.939 104.679 207.099C104.679 206.259 104.955 205.599 105.508 205.119C106.06 204.639 106.816 204.399 107.776 204.399C108.712 204.399 109.456 204.651 110.008 205.155C110.584 205.635 110.872 206.283 110.872 207.099C110.872 207.939 110.596 208.611 110.044 209.115C109.492 209.595 108.736 209.835 107.776 209.835ZM123.025 227.007C123.745 227.055 124.273 227.235 124.609 227.547C124.945 227.859 125.113 228.315 125.113 228.915C125.113 229.611 124.837 230.139 124.285 230.499C123.733 230.859 122.941 231.003 121.909 230.931L120.901 230.859C116.701 230.523 114.601 228.327 114.601 224.271V217.143H113.161C112.369 217.143 111.769 216.975 111.361 216.639C110.953 216.279 110.749 215.775 110.749 215.127C110.749 214.455 110.953 213.951 111.361 213.615C111.769 213.255 112.369 213.075 113.161 213.075H114.601V210.267C114.601 209.475 114.841 208.851 115.321 208.395C115.825 207.939 116.497 207.711 117.337 207.711C118.177 207.711 118.837 207.939 119.317 208.395C119.797 208.851 120.037 209.475 120.037 210.267V213.075H122.557C124.189 213.075 125.005 213.759 125.005 215.127C125.005 215.775 124.801 216.279 124.393 216.639C123.985 216.975 123.373 217.143 122.557 217.143H120.037V224.667C120.037 225.387 120.205 225.939 120.541 226.323C120.877 226.683 121.369 226.887 122.017 226.935L123.025 227.007ZM133.635 212.643C136.227 212.643 138.147 213.279 139.395 214.551C140.643 215.799 141.267 217.719 141.267 220.311V228.447C141.267 229.239 141.039 229.863 140.583 230.319C140.127 230.751 139.491 230.967 138.675 230.967C137.907 230.967 137.283 230.739 136.803 230.283C136.347 229.803 136.119 229.191 136.119 228.447V228.195C135.759 229.083 135.159 229.779 134.319 230.283C133.479 230.787 132.495 231.039 131.367 231.039C130.167 231.039 129.075 230.799 128.091 230.319C127.131 229.839 126.363 229.167 125.787 228.303C125.235 227.439 124.959 226.479 124.959 225.423C124.959 224.127 125.283 223.107 125.931 222.363C126.603 221.619 127.671 221.079 129.135 220.743C130.599 220.407 132.603 220.239 135.147 220.239H136.083V219.591C136.083 218.583 135.855 217.851 135.399 217.395C134.967 216.939 134.235 216.711 133.203 216.711C132.171 216.711 130.683 217.071 128.739 217.791C128.187 218.055 127.719 218.187 127.335 218.187C126.807 218.187 126.387 218.007 126.075 217.647C125.763 217.263 125.607 216.771 125.607 216.171C125.607 215.691 125.715 215.295 125.931 214.983C126.147 214.671 126.495 214.383 126.975 214.119C127.815 213.663 128.835 213.303 130.035 213.039C131.259 212.775 132.459 212.643 133.635 212.643ZM132.555 227.295C133.611 227.295 134.463 226.947 135.111 226.251C135.759 225.531 136.083 224.607 136.083 223.479V222.867H135.471C133.527 222.867 132.159 223.023 131.367 223.335C130.599 223.647 130.215 224.211 130.215 225.027C130.215 225.699 130.431 226.251 130.863 226.683C131.319 227.091 131.883 227.295 132.555 227.295ZM146.627 230.967C145.835 230.967 145.175 230.751 144.647 230.319C144.143 229.887 143.891 229.251 143.891 228.411V207.747C143.891 206.907 144.143 206.271 144.647 205.839C145.175 205.407 145.835 205.191 146.627 205.191C147.395 205.191 148.031 205.407 148.535 205.839C149.063 206.271 149.327 206.907 149.327 207.747V228.411C149.327 229.251 149.063 229.887 148.535 230.319C148.031 230.751 147.395 230.967 146.627 230.967ZM182.444 212.643C184.364 212.643 185.84 213.231 186.872 214.407C187.904 215.559 188.42 217.455 188.42 220.095V228.411C188.42 229.251 188.168 229.887 187.664 230.319C187.16 230.751 186.512 230.967 185.72 230.967C184.952 230.967 184.304 230.751 183.776 230.319C183.248 229.887 182.984 229.251 182.984 228.411V220.023C182.984 218.871 182.78 218.067 182.372 217.611C181.988 217.131 181.388 216.891 180.572 216.891C179.564 216.891 178.76 217.239 178.16 217.935C177.56 218.631 177.26 219.603 177.26 220.851V228.411C177.26 229.251 177.008 229.887 176.504 230.319C176 230.751 175.352 230.967 174.56 230.967C173.792 230.967 173.144 230.751 172.616 230.319C172.088 229.887 171.824 229.251 171.824 228.411V220.023C171.824 218.871 171.62 218.067 171.212 217.611C170.828 217.131 170.228 216.891 169.412 216.891C168.404 216.891 167.6 217.239 167 217.935C166.4 218.631 166.1 219.603 166.1 220.851V228.411C166.1 229.251 165.836 229.887 165.308 230.319C164.804 230.751 164.168 230.967 163.4 230.967C162.632 230.967 161.984 230.751 161.456 230.319C160.928 229.887 160.664 229.251 160.664 228.411V215.199C160.664 214.407 160.928 213.795 161.456 213.363C162.008 212.931 162.668 212.715 163.436 212.715C164.156 212.715 164.756 212.931 165.236 213.363C165.716 213.771 165.956 214.347 165.956 215.091V215.451C166.532 214.539 167.276 213.843 168.188 213.363C169.124 212.883 170.18 212.643 171.356 212.643C172.628 212.643 173.696 212.907 174.56 213.435C175.448 213.939 176.132 214.767 176.612 215.919C177.164 214.911 177.944 214.119 178.952 213.543C179.984 212.943 181.148 212.643 182.444 212.643ZM199.031 212.643C201.623 212.643 203.543 213.279 204.791 214.551C206.039 215.799 206.663 217.719 206.663 220.311V228.447C206.663 229.239 206.435 229.863 205.979 230.319C205.523 230.751 204.887 230.967 204.071 230.967C203.303 230.967 202.679 230.739 202.199 230.283C201.743 229.803 201.515 229.191 201.515 228.447V228.195C201.155 229.083 200.555 229.779 199.715 230.283C198.875 230.787 197.891 231.039 196.763 231.039C195.563 231.039 194.471 230.799 193.487 230.319C192.527 229.839 191.759 229.167 191.183 228.303C190.631 227.439 190.355 226.479 190.355 225.423C190.355 224.127 190.679 223.107 191.327 222.363C191.999 221.619 193.067 221.079 194.531 220.743C195.995 220.407 197.999 220.239 200.543 220.239H201.479V219.591C201.479 218.583 201.251 217.851 200.795 217.395C200.363 216.939 199.631 216.711 198.599 216.711C197.567 216.711 196.079 217.071 194.135 217.791C193.583 218.055 193.115 218.187 192.731 218.187C192.203 218.187 191.783 218.007 191.471 217.647C191.159 217.263 191.003 216.771 191.003 216.171C191.003 215.691 191.111 215.295 191.327 214.983C191.543 214.671 191.891 214.383 192.371 214.119C193.211 213.663 194.231 213.303 195.431 213.039C196.655 212.775 197.855 212.643 199.031 212.643ZM197.951 227.295C199.007 227.295 199.859 226.947 200.507 226.251C201.155 225.531 201.479 224.607 201.479 223.479V222.867H200.867C198.923 222.867 197.555 223.023 196.763 223.335C195.995 223.647 195.611 224.211 195.611 225.027C195.611 225.699 195.827 226.251 196.259 226.683C196.715 227.091 197.279 227.295 197.951 227.295ZM219.836 212.715C220.556 212.667 221.12 212.835 221.528 213.219C221.96 213.579 222.176 214.131 222.176 214.875C222.176 215.667 221.984 216.255 221.6 216.639C221.216 217.023 220.532 217.263 219.548 217.359L218.468 217.467C217.148 217.611 216.188 218.043 215.588 218.763C215.012 219.483 214.724 220.407 214.724 221.535V228.411C214.724 229.251 214.46 229.887 213.932 230.319C213.428 230.751 212.792 230.967 212.024 230.967C211.232 230.967 210.572 230.751 210.044 230.319C209.54 229.887 209.288 229.251 209.288 228.411V215.199C209.288 214.407 209.552 213.795 210.08 213.363C210.608 212.931 211.244 212.715 211.988 212.715C212.708 212.715 213.308 212.931 213.788 213.363C214.268 213.771 214.508 214.347 214.508 215.091V216.063C214.94 215.031 215.588 214.239 216.452 213.687C217.34 213.135 218.3 212.823 219.332 212.751L219.836 212.715ZM238.965 226.539C239.517 227.067 239.793 227.667 239.793 228.339C239.793 229.011 239.541 229.611 239.037 230.139C238.557 230.667 237.993 230.931 237.345 230.931C236.721 230.931 236.145 230.679 235.617 230.175L227.733 222.867V228.375C227.733 229.215 227.469 229.851 226.941 230.283C226.437 230.715 225.801 230.931 225.033 230.931C224.241 230.931 223.581 230.715 223.053 230.283C222.549 229.851 222.297 229.215 222.297 228.375V207.747C222.297 206.907 222.549 206.271 223.053 205.839C223.581 205.407 224.241 205.191 225.033 205.191C225.801 205.191 226.437 205.407 226.941 205.839C227.469 206.271 227.733 206.907 227.733 207.747V220.635L234.933 213.543C235.461 213.015 236.049 212.751 236.697 212.751C237.369 212.751 237.957 213.003 238.461 213.507C238.965 213.987 239.217 214.563 239.217 215.235C239.217 215.859 238.941 216.447 238.389 216.999L233.601 221.571L238.965 226.539ZM254.939 225.495C255.419 225.495 255.803 225.687 256.091 226.071C256.403 226.455 256.559 226.947 256.559 227.547C256.559 227.955 256.439 228.339 256.199 228.699C255.959 229.035 255.623 229.323 255.191 229.563C254.375 229.995 253.427 230.355 252.347 230.643C251.267 230.907 250.271 231.039 249.359 231.039C247.439 231.039 245.759 230.667 244.319 229.923C242.903 229.179 241.811 228.123 241.043 226.755C240.275 225.363 239.891 223.731 239.891 221.859C239.891 220.059 240.263 218.463 241.007 217.071C241.751 215.679 242.783 214.599 244.103 213.831C245.423 213.039 246.923 212.643 248.603 212.643C250.211 212.643 251.615 213.003 252.815 213.723C254.039 214.419 254.987 215.427 255.659 216.747C256.331 218.043 256.667 219.567 256.667 221.319C256.667 221.847 256.535 222.255 256.271 222.543C256.031 222.807 255.683 222.939 255.227 222.939H245.147C245.315 224.355 245.747 225.387 246.443 226.035C247.139 226.659 248.135 226.971 249.431 226.971C250.127 226.971 250.751 226.887 251.303 226.719C251.855 226.551 252.467 226.323 253.139 226.035C253.475 225.891 253.799 225.771 254.111 225.675C254.423 225.555 254.699 225.495 254.939 225.495ZM248.747 216.387C247.715 216.387 246.887 216.723 246.263 217.395C245.639 218.043 245.267 218.991 245.147 220.239H252.095C252.023 218.967 251.699 218.007 251.123 217.359C250.571 216.711 249.779 216.387 248.747 216.387ZM267.987 227.007C268.707 227.055 269.235 227.235 269.571 227.547C269.907 227.859 270.075 228.315 270.075 228.915C270.075 229.611 269.799 230.139 269.247 230.499C268.695 230.859 267.903 231.003 266.871 230.931L265.863 230.859C261.663 230.523 259.563 228.327 259.563 224.271V217.143H258.123C257.331 217.143 256.731 216.975 256.323 216.639C255.915 216.279 255.711 215.775 255.711 215.127C255.711 214.455 255.915 213.951 256.323 213.615C256.731 213.255 257.331 213.075 258.123 213.075H259.563V210.267C259.563 209.475 259.803 208.851 260.283 208.395C260.787 207.939 261.459 207.711 262.299 207.711C263.139 207.711 263.799 207.939 264.279 208.395C264.759 208.851 264.999 209.475 264.999 210.267V213.075H267.519C269.151 213.075 269.967 213.759 269.967 215.127C269.967 215.775 269.763 216.279 269.355 216.639C268.947 216.975 268.335 217.143 267.519 217.143H264.999V224.667C264.999 225.387 265.167 225.939 265.503 226.323C265.839 226.683 266.331 226.887 266.979 226.935L267.987 227.007ZM273.377 230.967C272.585 230.967 271.925 230.751 271.397 230.319C270.893 229.887 270.641 229.251 270.641 228.411V215.271C270.641 214.431 270.905 213.795 271.433 213.363C271.961 212.931 272.609 212.715 273.377 212.715C274.145 212.715 274.781 212.931 275.285 213.363C275.813 213.795 276.077 214.431 276.077 215.271V228.411C276.077 229.251 275.813 229.887 275.285 230.319C274.781 230.751 274.145 230.967 273.377 230.967ZM273.377 209.835C272.417 209.835 271.661 209.595 271.109 209.115C270.557 208.611 270.281 207.939 270.281 207.099C270.281 206.259 270.557 205.599 271.109 205.119C271.661 204.639 272.417 204.399 273.377 204.399C274.313 204.399 275.057 204.651 275.609 205.155C276.185 205.635 276.473 206.283 276.473 207.099C276.473 207.939 276.197 208.611 275.645 209.115C275.093 209.595 274.337 209.835 273.377 209.835ZM289.887 212.643C291.999 212.643 293.571 213.267 294.603 214.515C295.635 215.739 296.151 217.599 296.151 220.095V228.411C296.151 229.203 295.899 229.827 295.395 230.283C294.915 230.739 294.255 230.967 293.415 230.967C292.575 230.967 291.915 230.739 291.435 230.283C290.955 229.827 290.715 229.203 290.715 228.411V220.347C290.715 219.147 290.487 218.271 290.031 217.719C289.599 217.167 288.915 216.891 287.979 216.891C286.851 216.891 285.939 217.251 285.243 217.971C284.571 218.691 284.235 219.651 284.235 220.851V228.411C284.235 229.203 283.995 229.827 283.515 230.283C283.035 230.739 282.375 230.967 281.535 230.967C280.695 230.967 280.023 230.739 279.519 230.283C279.039 229.827 278.799 229.203 278.799 228.411V215.199C278.799 214.455 279.051 213.855 279.555 213.399C280.083 212.943 280.755 212.715 281.571 212.715C282.315 212.715 282.915 212.943 283.371 213.399C283.851 213.831 284.091 214.395 284.091 215.091V215.595C284.715 214.635 285.519 213.903 286.503 213.399C287.511 212.895 288.639 212.643 289.887 212.643ZM314.105 212.715C314.921 212.715 315.569 212.955 316.049 213.435C316.553 213.891 316.805 214.503 316.805 215.271V228.843C316.805 231.699 315.977 233.859 314.321 235.323C312.665 236.787 310.241 237.519 307.049 237.519C304.361 237.519 302.153 237.039 300.425 236.079C299.993 235.839 299.657 235.539 299.417 235.179C299.177 234.843 299.057 234.459 299.057 234.027C299.057 233.427 299.201 232.935 299.489 232.551C299.777 232.167 300.161 231.975 300.641 231.975C300.905 231.975 301.217 232.023 301.577 232.119C301.937 232.239 302.309 232.371 302.693 232.515C303.461 232.803 304.169 233.031 304.817 233.199C305.465 233.367 306.161 233.451 306.905 233.451C308.441 233.451 309.581 233.103 310.325 232.407C311.069 231.711 311.441 230.655 311.441 229.239V227.295C310.937 228.207 310.181 228.927 309.173 229.455C308.165 229.983 307.037 230.247 305.789 230.247C304.253 230.247 302.885 229.887 301.685 229.167C300.509 228.447 299.585 227.427 298.913 226.107C298.241 224.763 297.905 223.215 297.905 221.463C297.905 219.711 298.241 218.175 298.913 216.855C299.585 215.511 300.509 214.479 301.685 213.759C302.885 213.015 304.253 212.643 305.789 212.643C307.013 212.643 308.117 212.907 309.101 213.435C310.109 213.939 310.877 214.647 311.405 215.559V215.199C311.405 214.431 311.645 213.831 312.125 213.399C312.629 212.943 313.289 212.715 314.105 212.715ZM307.373 226.107C308.645 226.107 309.629 225.699 310.325 224.883C311.045 224.067 311.405 222.927 311.405 221.463C311.405 219.999 311.045 218.859 310.325 218.043C309.629 217.203 308.645 216.783 307.373 216.783C306.101 216.783 305.105 217.203 304.385 218.043C303.665 218.859 303.305 219.999 303.305 221.463C303.305 222.927 303.665 224.067 304.385 224.883C305.105 225.699 306.101 226.107 307.373 226.107Z" fill="#173D63"/>
</svg>
